<svg width="18" height="19" viewBox="0 0 18 19" fill="none" xmlns="http://www.w3.org/2000/svg">
<path d="M4.51006 8.19712L4.51006 2.60449" stroke="black" stroke-width="1.3" stroke-linecap="round" stroke-linejoin="round"/>
<path fill-rule="evenodd" clip-rule="evenodd" d="M4.51004 16.7017C3.3171 16.7017 2.35004 15.7048 2.35004 14.4752C2.35004 13.2455 3.3171 12.2487 4.51004 12.2487C5.70387 12.2487 6.67004 13.2455 6.67004 14.4752C6.67004 15.7048 5.70387 16.7017 4.51004 16.7017Z" stroke="black" stroke-width="1.3" stroke-linecap="round" stroke-linejoin="round"/>
<path d="M13.3035 11.1082L13.3035 16.7017" stroke="black" stroke-width="1.3" stroke-linecap="round" stroke-linejoin="round"/>
<path fill-rule="evenodd" clip-rule="evenodd" d="M13.3034 2.60413C12.1096 2.60413 11.1434 3.60096 11.1434 4.83063C11.1434 6.0603 12.1096 7.05713 13.3034 7.05713C14.4964 7.05713 15.4634 6.0603 15.4634 4.83063C15.4634 3.60096 14.4964 2.60413 13.3034 2.60413Z" stroke="black" stroke-width="1.3" stroke-linecap="round" stroke-linejoin="round"/>
</svg>
