<svg width="22" height="22" viewBox="0 0 22 22" fill="none" xmlns="http://www.w3.org/2000/svg">
<path d="M5.5123 9.27397L5.5123 2.6427" stroke="white" stroke-width="1.3" stroke-linecap="round" stroke-linejoin="round"/>
<path fill-rule="evenodd" clip-rule="evenodd" d="M5.51228 19.358C4.05424 19.358 2.87228 18.176 2.87228 16.718C2.87228 15.26 4.05424 14.078 5.51228 14.078C6.9714 14.078 8.15228 15.26 8.15228 16.718C8.15228 18.176 6.9714 19.358 5.51228 19.358Z" stroke="white" stroke-width="1.3" stroke-linecap="round" stroke-linejoin="round"/>
<path d="M16.2597 12.7258L16.2597 19.3582" stroke="white" stroke-width="1.3" stroke-linecap="round" stroke-linejoin="round"/>
<path fill-rule="evenodd" clip-rule="evenodd" d="M16.2597 2.64233C14.8006 2.64233 13.6197 3.82429 13.6197 5.28233C13.6197 6.74037 14.8006 7.92233 16.2597 7.92233C17.7178 7.92233 18.8997 6.74037 18.8997 5.28233C18.8997 3.8243 17.7178 2.64233 16.2597 2.64233Z" stroke="white" stroke-width="1.3" stroke-linecap="round" stroke-linejoin="round"/>
</svg>
