<svg width="40" height="40" viewBox="0 0 40 40" fill="none" xmlns="http://www.w3.org/2000/svg">
<circle cx="20" cy="20" r="20" fill="white"/>
<path d="M27.6667 15.6876H22.3334V13.3334C22.3334 12.9647 22.0354 12.6667 21.6667 12.6667H13.1667V11.8334C13.1667 11.7417 13.0917 11.6667 13 11.6667H11.8334C11.7417 11.6667 11.6667 11.7417 11.6667 11.8334V28.1667C11.6667 28.2584 11.7417 28.3334 11.8334 28.3334H13C13.0917 28.3334 13.1667 28.2584 13.1667 28.1667V22.6667H18.3334V25.0209C18.3334 25.3897 18.6313 25.6876 19 25.6876H27.6667C28.0354 25.6876 28.3334 25.3897 28.3334 25.0209V16.3542C28.3334 15.9855 28.0354 15.6876 27.6667 15.6876ZM13.1667 21.1667V14.1667H20.8334V21.1667H13.1667ZM26.8334 24.1876H19.8334V22.6667H22.1667C22.2584 22.6667 22.3334 22.5917 22.3334 22.5001V17.1876H26.8334V24.1876Z" fill="#0B0C0A"/>
</svg>
