<svg width="29" height="28" viewBox="0 0 29 28" fill="none" xmlns="http://www.w3.org/2000/svg">
<g clip-path="url(#clip0_8748_14)">
<path d="M21.7114 7.01367C22.7071 7.75526 23.4182 8.28558 23.9489 8.7515C24.4712 9.21013 24.7765 9.57101 24.9801 9.9535C25.3965 10.7361 25.4166 11.6301 25.4166 13.9429V15.6829C25.4166 18.0607 25.4145 19.7561 25.2122 21.0439C25.0154 22.2966 24.6435 23.0587 23.9705 23.6347C23.2805 24.2251 22.3395 24.5633 20.815 24.7387C19.2794 24.9154 17.268 24.9166 14.5 24.9166C11.7319 24.9166 9.72054 24.9154 8.18495 24.7387C6.66049 24.5633 5.71942 24.2251 5.02949 23.6347C4.35642 23.0587 3.9846 22.2966 3.78779 21.0439C3.58547 19.7561 3.58331 18.0607 3.58331 15.6829L3.58331 13.9429C3.58331 11.63 3.60345 10.7361 4.01989 9.9535C4.22342 9.57101 4.52873 9.21013 5.0511 8.7515C5.58179 8.28557 6.29286 7.75526 7.28853 7.01367C9.12848 5.64324 10.4562 4.6559 11.5938 4.00361C12.7119 3.36247 13.5838 3.08325 14.5 3.08325C15.4161 3.08325 16.288 3.36247 17.4062 4.00361C18.5438 4.6559 19.8715 5.64324 21.7114 7.01367Z" stroke="#25347C" stroke-width="1.5"/>
<rect x="18.4166" y="19.0833" width="7.83333" height="7.83333" rx="3.91667" transform="rotate(-180 18.4166 19.0833)" stroke="#25347C" stroke-width="1.5"/>
</g>
<defs>
<clipPath id="clip0_8748_14">
<rect width="28" height="28" fill="white" transform="translate(0.5)"/>
</clipPath>
</defs>
</svg>
