<svg width="24" height="24" viewBox="0 0 24 24" fill="none" xmlns="http://www.w3.org/2000/svg">
<path d="M2.57144 2.57153C2.34411 2.57153 2.12609 2.66184 1.96535 2.82258C1.8046 2.98333 1.71429 3.20135 1.71429 3.42868V8.57153C1.71429 8.79886 1.8046 9.01688 1.96535 9.17762C2.12609 9.33837 2.34411 9.42868 2.57144 9.42868H7.71429C7.94162 9.42868 8.15964 9.33837 8.32039 9.17762C8.48113 9.01688 8.57144 8.79886 8.57144 8.57153C8.57144 8.3442 8.48113 8.12619 8.32039 7.96544C8.15964 7.8047 7.94162 7.71439 7.71429 7.71439H4.02858C5.47115 5.74382 8.40172 4.28582 11.7857 4.28582C15.3 4.28582 17.8783 5.93582 19.848 9.03182C19.9701 9.22368 20.1634 9.3592 20.3854 9.40855C20.6074 9.45789 20.8399 9.41704 21.0317 9.29496C21.2236 9.17289 21.3591 8.97959 21.4085 8.7576C21.4578 8.53561 21.4169 8.30311 21.2949 8.11125C19.0654 4.61153 15.9857 2.57153 11.7857 2.57153C8.47287 2.57153 5.38029 3.80753 3.42858 5.78325V3.42868C3.42858 3.20135 3.33827 2.98333 3.17753 2.82258C3.01678 2.66184 2.79877 2.57153 2.57144 2.57153ZM8.80029 11.1738C8.98098 11.2239 9.14026 11.3318 9.25374 11.481C9.36722 11.6303 9.42864 11.8126 9.42858 12.0001V20.5715C9.42858 20.7989 9.33827 21.0169 9.17753 21.1776C9.01678 21.3384 8.79877 21.4287 8.57144 21.4287C8.34411 21.4287 8.12609 21.3384 7.96535 21.1776C7.8046 21.0169 7.71429 20.7989 7.71429 20.5715V14.3444C7.32373 14.7076 6.89725 15.0301 6.44144 15.307C6.24639 15.424 6.01282 15.4588 5.79212 15.4037C5.57142 15.3486 5.38165 15.208 5.26458 15.013C5.14751 14.8179 5.11271 14.5843 5.16785 14.3636C5.22298 14.1429 5.36353 13.9532 5.55858 13.8361C6.25458 13.4195 6.82715 12.8504 7.23429 12.3704C7.43962 12.1275 7.63052 11.8728 7.80601 11.6075L7.83172 11.5664L7.83687 11.5587V11.5578C7.93344 11.3973 8.07993 11.2729 8.25391 11.2036C8.4279 11.1342 8.61981 11.1238 8.80029 11.1738ZM12.5554 12.8118C13.1812 11.7772 14.2114 11.143 15.6326 11.143C17.0554 11.143 18.084 11.7772 18.7097 12.8118C19.2969 13.783 19.4897 15.0378 19.4897 16.2858C19.4897 17.5338 19.2969 18.7887 18.7097 19.7598C18.084 20.7944 17.0554 21.4287 15.6326 21.4287C14.2106 21.4287 13.1812 20.7944 12.5554 19.7598C11.9692 18.7887 11.7754 17.5338 11.7754 16.2858C11.7754 15.0378 11.9692 13.783 12.5554 12.8118ZM14.0229 13.699C13.6714 14.2792 13.4897 15.1672 13.4897 16.2858C13.4897 17.4044 13.6714 18.2924 14.0229 18.8727C14.3349 19.3887 14.8046 19.7144 15.6326 19.7144C16.4606 19.7144 16.9312 19.3887 17.2432 18.8727C17.5946 18.2924 17.7754 17.4044 17.7754 16.2858C17.7754 15.1672 17.5937 14.2792 17.2432 13.699C16.9312 13.183 16.4606 12.8572 15.6326 12.8572C14.8046 12.8572 14.3349 13.183 14.0229 13.699Z" fill="#0D0E10"/>
</svg>
