<svg width="55" height="55" viewBox="0 0 55 55" fill="none" xmlns="http://www.w3.org/2000/svg">
<circle cx="27.5" cy="27.5" r="27" fill="#688EDA" fill-opacity="0.1" stroke="#0D0E10"/>
<path d="M24.4062 19.7656H22.8594C22.4491 19.7656 22.0557 19.9286 21.7656 20.2187C21.4755 20.5088 21.3125 20.9022 21.3125 21.3125V33.6875C21.3125 34.0978 21.4755 34.4912 21.7656 34.7813C22.0557 35.0714 22.4491 35.2344 22.8594 35.2344H24.4062C24.8165 35.2344 25.21 35.0714 25.5001 34.7813C25.7902 34.4912 25.9531 34.0978 25.9531 33.6875V21.3125C25.9531 20.9022 25.7902 20.5088 25.5001 20.2187C25.21 19.9286 24.8165 19.7656 24.4062 19.7656ZM32.1406 19.7656H30.5938C30.1835 19.7656 29.79 19.9286 29.4999 20.2187C29.2098 20.5088 29.0469 20.9022 29.0469 21.3125V33.6875C29.0469 34.0978 29.2098 34.4912 29.4999 34.7813C29.79 35.0714 30.1835 35.2344 30.5938 35.2344H32.1406C32.5509 35.2344 32.9443 35.0714 33.2344 34.7813C33.5245 34.4912 33.6875 34.0978 33.6875 33.6875V21.3125C33.6875 20.9022 33.5245 20.5088 33.2344 20.2187C32.9443 19.9286 32.5509 19.7656 32.1406 19.7656Z" fill="#0D0E10"/>
</svg>
