<svg width="24" height="24" viewBox="0 0 24 24" fill="none" xmlns="http://www.w3.org/2000/svg">
<path d="M4.15198 9.03182C6.1217 5.93582 8.69998 4.28582 12.2143 4.28582C15.5983 4.28582 18.5288 5.74382 19.9714 7.71439H16.2857C16.0584 7.71439 15.8404 7.8047 15.6796 7.96544C15.5189 8.12619 15.4286 8.3442 15.4286 8.57153C15.4286 8.79886 15.5189 9.01688 15.6796 9.17762C15.8404 9.33837 16.0584 9.42868 16.2857 9.42868H21.4286C21.6559 9.42868 21.8739 9.33837 22.0346 9.17762C22.1954 9.01688 22.2857 8.79886 22.2857 8.57153V3.42868C22.2857 3.20135 22.1954 2.98333 22.0346 2.82258C21.8739 2.66184 21.6559 2.57153 21.4286 2.57153C21.2012 2.57153 20.9832 2.66184 20.8225 2.82258C20.6617 2.98333 20.5714 3.20135 20.5714 3.42868V5.78325C18.6197 3.80753 15.5271 2.57153 12.2143 2.57153C8.01427 2.57153 4.93284 4.61153 2.70513 8.11125C2.58305 8.30311 2.54219 8.53561 2.59154 8.7576C2.64089 8.97959 2.7764 9.17289 2.96827 9.29496C3.16013 9.41704 3.39263 9.45789 3.61462 9.40855C3.83661 9.3592 4.02991 9.22368 4.15198 9.03182ZM15.6326 11.143C14.2106 11.143 13.1811 11.7772 12.5554 12.8118C11.9691 13.783 11.7754 15.0378 11.7754 16.2858C11.7754 17.5338 11.9691 18.7887 12.5554 19.7598C13.1811 20.7944 14.2114 21.4287 15.6326 21.4287C17.0554 21.4287 18.084 20.7944 18.7097 19.7598C19.2968 18.7887 19.4897 17.5338 19.4897 16.2858C19.4897 15.0378 19.2968 13.783 18.7097 12.8118C18.084 11.7772 17.0554 11.143 15.6326 11.143ZM13.4897 16.2858C13.4897 15.1672 13.6714 14.2792 14.0228 13.699C14.3348 13.183 14.8046 12.8572 15.6326 12.8572C16.4606 12.8572 16.9311 13.183 17.2431 13.699C17.5946 14.2792 17.7754 15.1672 17.7754 16.2858C17.7754 17.4044 17.5937 18.2924 17.2431 18.8727C16.9311 19.3887 16.4606 19.7144 15.6326 19.7144C14.8046 19.7144 14.3348 19.3887 14.0228 18.8727C13.6714 18.2924 13.4897 17.4044 13.4897 16.2858ZM9.42855 12.0001C9.42837 11.8129 9.36693 11.631 9.25361 11.482C9.1403 11.333 8.98133 11.2253 8.801 11.1751C8.62068 11.125 8.42889 11.1353 8.25495 11.2044C8.081 11.2735 7.93446 11.3976 7.8377 11.5578L7.83684 11.5587L7.8317 11.5664C7.82741 11.575 7.81798 11.5878 7.80598 11.6067C7.6305 11.8719 7.4396 12.1266 7.23427 12.3695C6.82798 12.8512 6.25455 13.4195 5.55941 13.8361C5.36436 13.9531 5.22377 14.1427 5.16855 14.3633C5.11333 14.584 5.14802 14.8175 5.26498 15.0125C5.38194 15.2076 5.5716 15.3482 5.79222 15.4034C6.01284 15.4586 6.24636 15.4239 6.44141 15.307C6.89723 15.0301 7.32371 14.7076 7.71427 14.3444V20.5715C7.71427 20.7989 7.80457 21.0169 7.96532 21.1776C8.12607 21.3384 8.34408 21.4287 8.57141 21.4287C8.79874 21.4287 9.01676 21.3384 9.1775 21.1776C9.33825 21.0169 9.42855 20.7989 9.42855 20.5715V12.0001Z" fill="#0D0E10"/>
</svg>
