<svg width="213" height="42" viewBox="0 0 213 42" fill="none" xmlns="http://www.w3.org/2000/svg">
<rect y="14.6025" width="2.78143" height="12.5164" rx="1.39071" fill="#0D0E10"/>
<rect x="5.83423" y="7.64893" width="2.78143" height="26.4236" rx="1.39071" fill="#0D0E10"/>
<rect x="11.6685" width="2.78143" height="41.7214" rx="1.39071" fill="#0D0E10"/>
<rect x="17.5026" y="7.64893" width="2.78143" height="26.4236" rx="1.39071" fill="#0D0E10"/>
<rect x="23.3369" y="14.6025" width="2.78143" height="12.5164" rx="1.39071" fill="#0D0E10"/>
<rect x="29.1711" y="7.64893" width="2.78143" height="26.4236" rx="1.39071" fill="#0D0E10"/>
<rect x="35.0052" y="14.6025" width="2.78143" height="12.5164" rx="1.39071" fill="#0D0E10"/>
<rect x="40.8395" y="9.03955" width="2.78143" height="23.6421" rx="1.39071" fill="#0D0E10"/>
<rect x="46.6737" y="11.821" width="2.78143" height="18.0793" rx="1.39071" fill="#0D0E10"/>
<rect x="52.5079" y="15.9932" width="2.78143" height="9.735" rx="1.39071" fill="#0D0E10"/>
<rect x="58.3421" y="14.6025" width="2.78143" height="12.5164" rx="1.39071" fill="#0D0E10"/>
<rect x="64.1763" y="7.64893" width="2.78143" height="26.4236" rx="1.39071" fill="#0D0E10"/>
<rect x="70.0106" y="4.17212" width="2.78143" height="33.3771" rx="1.39071" fill="#0D0E10"/>
<rect x="75.8448" y="7.64893" width="2.78143" height="26.4236" rx="1.39071" fill="#0D0E10"/>
<rect x="81.679" y="14.6025" width="2.78143" height="12.5164" rx="1.39071" fill="#0D0E10"/>
<rect x="87.5132" y="7.64893" width="2.78143" height="26.4236" rx="1.39071" fill="#0D0E10"/>
<rect x="93.3474" y="14.6025" width="2.78143" height="12.5164" rx="1.39071" fill="#0D0E10"/>
<rect x="99.1816" y="9.03955" width="2.78143" height="23.6421" rx="1.39071" fill="#0D0E10"/>
<rect x="105.016" y="11.821" width="2.78143" height="18.0793" rx="1.39071" fill="#0D0E10"/>
<rect opacity="0.16" x="110.85" y="15.9932" width="2.78143" height="9.735" rx="1.39071" fill="#0D0E10"/>
<rect opacity="0.16" x="116.684" y="14.6025" width="2.78143" height="12.5164" rx="1.39071" fill="#0D0E10"/>
<rect opacity="0.16" x="122.518" y="7.64893" width="2.78143" height="26.4236" rx="1.39071" fill="#0D0E10"/>
<rect opacity="0.16" x="128.353" width="2.78143" height="41.7214" rx="1.39071" fill="#0D0E10"/>
<rect opacity="0.16" x="134.187" y="7.64893" width="2.78143" height="26.4236" rx="1.39071" fill="#0D0E10"/>
<rect opacity="0.16" x="140.021" y="14.6025" width="2.78143" height="12.5164" rx="1.39071" fill="#0D0E10"/>
<rect opacity="0.16" x="145.855" y="7.64893" width="2.78143" height="26.4236" rx="1.39071" fill="#0D0E10"/>
<rect opacity="0.16" x="151.69" y="14.6025" width="2.78143" height="12.5164" rx="1.39071" fill="#0D0E10"/>
<rect opacity="0.16" x="157.524" y="9.03955" width="2.78143" height="23.6421" rx="1.39071" fill="#0D0E10"/>
<rect opacity="0.16" x="163.358" y="11.821" width="2.78143" height="18.0793" rx="1.39071" fill="#0D0E10"/>
<rect opacity="0.16" x="169.192" y="15.9932" width="2.78143" height="9.735" rx="1.39071" fill="#0D0E10"/>
<rect opacity="0.16" x="175.026" y="14.6025" width="2.78143" height="12.5164" rx="1.39071" fill="#0D0E10"/>
<rect opacity="0.16" x="180.861" y="7.64893" width="2.78143" height="26.4236" rx="1.39071" fill="#0D0E10"/>
<rect opacity="0.16" x="186.695" width="2.78143" height="41.7214" rx="1.39071" fill="#0D0E10"/>
<rect opacity="0.16" x="192.529" y="7.64893" width="2.78143" height="26.4236" rx="1.39071" fill="#0D0E10"/>
<rect opacity="0.16" x="198.363" y="14.6025" width="2.78143" height="12.5164" rx="1.39071" fill="#0D0E10"/>
<rect opacity="0.16" x="204.197" y="7.64893" width="2.78143" height="26.4236" rx="1.39071" fill="#0D0E10"/>
<rect opacity="0.16" x="210.032" y="14.6025" width="2.78143" height="12.5164" rx="1.39071" fill="#0D0E10"/>
</svg>
