<svg width="20" height="20" viewBox="0 0 20 20" fill="none" xmlns="http://www.w3.org/2000/svg">
<circle cx="10" cy="9.99996" r="5.83333" fill="white"/>
<path d="M19.1667 10L17.1333 7.675L17.4167 4.6L14.4083 3.91667L12.8333 1.25L10 2.46667L7.16667 1.25L5.59167 3.90833L2.58333 4.58333L2.86667 7.66667L0.833334 10L2.86667 12.325L2.58333 15.4083L5.59167 16.0917L7.16667 18.75L10 17.525L12.8333 18.7417L14.4083 16.0833L17.4167 15.4L17.1333 12.325L19.1667 10ZM8.40833 13.9333L5.24167 10.7583L6.475 9.525L8.40833 11.4667L13.2833 6.575L14.5167 7.80833L8.40833 13.9333V13.9333Z" fill="#205EFF"/>
</svg>
